<svg width="216" height="35" viewBox="0 0 216 35" fill="none" xmlns="http://www.w3.org/2000/svg">
<path d="M34.4531 17.875C34.4531 8.50977 26.8652 0.921875 17.5 0.921875C8.13477 0.921875 0.546875 8.50977 0.546875 17.875C0.546875 26.3516 6.69922 33.3926 14.834 34.623V22.7969H10.5273V17.875H14.834V14.1836C14.834 9.94531 17.3633 7.55273 21.1914 7.55273C23.1055 7.55273 25.0195 7.89453 25.0195 7.89453V12.0645H22.9004C20.7812 12.0645 20.0977 13.3633 20.0977 14.7305V17.875H24.8145L24.0625 22.7969H20.0977V34.623C28.2324 33.3926 34.4531 26.3516 34.4531 17.875Z" fill="white"/>
<path d="M91.377 10.7656C92.7441 9.74023 93.9746 8.50977 94.9316 7.07422C93.7012 7.62109 92.2656 8.03125 90.8301 8.16797C92.334 7.2793 93.4277 5.91211 93.9746 4.20312C92.6074 5.02344 91.0352 5.63867 89.4629 5.98047C88.0957 4.54492 86.25 3.72461 84.1992 3.72461C80.2344 3.72461 77.0215 6.9375 77.0215 10.9023C77.0215 11.4492 77.0898 11.9961 77.2266 12.543C71.2793 12.2012 65.9473 9.33008 62.3926 5.02344C61.7773 6.04883 61.4355 7.2793 61.4355 8.64648C61.4355 11.1074 62.666 13.2949 64.6484 14.5938C63.4863 14.5254 62.3242 14.252 61.3672 13.7051V13.7734C61.3672 17.2598 63.8281 20.1309 67.1094 20.8145C66.5625 20.9512 65.8789 21.0879 65.2637 21.0879C64.7852 21.0879 64.375 21.0195 63.8965 20.9512C64.7852 23.8223 67.4512 25.873 70.5957 25.9414C68.1348 27.8555 65.0586 29.0176 61.709 29.0176C61.0938 29.0176 60.5469 28.9492 60 28.8809C63.1445 30.9316 66.9043 32.0938 71.0059 32.0938C84.1992 32.0938 91.377 21.2246 91.377 11.7227C91.377 11.3809 91.377 11.1074 91.377 10.7656Z" fill="white"/>
<path d="M157.842 8.91992C157.432 7.2793 156.133 5.98047 154.561 5.57031C151.621 4.75 140 4.75 140 4.75C140 4.75 128.311 4.75 125.371 5.57031C123.799 5.98047 122.5 7.2793 122.09 8.91992C121.27 11.791 121.27 17.9434 121.27 17.9434C121.27 17.9434 121.27 24.0273 122.09 26.9668C122.5 28.6074 123.799 29.8379 125.371 30.248C128.311 31 140 31 140 31C140 31 151.621 31 154.561 30.248C156.133 29.8379 157.432 28.6074 157.842 26.9668C158.662 24.0273 158.662 17.9434 158.662 17.9434C158.662 17.9434 158.662 11.791 157.842 8.91992ZM136.172 23.4805V12.4062L145.879 17.9434L136.172 23.4805Z" fill="white"/>
<path d="M192.023 31V10.5605H185.666V31H192.023ZM188.811 7.82617C190.861 7.82617 192.502 6.11719 192.502 4.06641C192.502 2.08398 190.861 0.443359 188.811 0.443359C186.828 0.443359 185.188 2.08398 185.188 4.06641C185.188 6.11719 186.828 7.82617 188.811 7.82617ZM215.744 31H215.812V19.7891C215.812 14.3203 214.582 10.082 208.156 10.082C205.08 10.082 203.029 11.791 202.141 13.3633H202.072V10.5605H195.988V31H202.346V20.8828C202.346 18.2168 202.824 15.6875 206.105 15.6875C209.387 15.6875 209.455 18.6953 209.455 21.0879V31H215.744Z" fill="white"/>
</svg>
